<?xml version="1.0" encoding="utf-8"?>
<!-- Generator: Adobe Illustrator 16.0.0, SVG Export Plug-In . SVG Version: 6.00 Build 0)  -->
<!DOCTYPE svg PUBLIC "-//W3C//DTD SVG 1.1//EN" "http://www.w3.org/Graphics/SVG/1.1/DTD/svg11.dtd">
<svg version="1.1" id="图层_1" xmlns="http://www.w3.org/2000/svg" xmlns:xlink="http://www.w3.org/1999/xlink" x="0px" y="0px"
	 width="32px" height="32px" viewBox="0 0 32 32" enable-background="new 0 0 32 32" xml:space="preserve">
<path d="M24.688,12.525H7.313c-1.912,0-3.475,1.563-3.475,3.475v10.425c0,1.912,1.563,3.476,3.475,3.476h17.375
	c1.911,0,3.476-1.563,3.476-3.476V16C28.163,14.088,26.599,12.525,24.688,12.525z M26.425,26.425c0,0.956-0.782,1.738-1.737,1.738
	H7.313c-0.956,0-1.738-0.782-1.738-1.738V16c0-0.956,0.782-1.737,1.738-1.737h17.375c0.955,0,1.737,0.782,1.737,1.737V26.425z"/>
<path d="M16,2.1c-3.822,0-6.95,3.128-6.95,6.95v5.213h13.9V9.05C22.95,5.228,19.823,2.1,16,2.1z M21.213,12.525H10.788V9.05
	c0-2.867,2.346-5.212,5.212-5.212c2.867,0,5.213,2.346,5.213,5.212V12.525z M17.737,20.344c0-0.955-0.782-1.737-1.737-1.737
	c-0.956,0-1.737,0.782-1.737,1.737c0,0.608,0.347,1.217,0.869,1.478v1.129c0,0.521,0.347,0.868,0.869,0.868
	c0.521,0,0.869-0.348,0.869-0.868v-1.129C17.39,21.561,17.737,20.952,17.737,20.344z"/>
</svg>
