<?xml version="1.0" encoding="utf-8"?>
<!-- Generator: Adobe Illustrator 16.0.0, SVG Export Plug-In . SVG Version: 6.00 Build 0)  -->
<!DOCTYPE svg PUBLIC "-//W3C//DTD SVG 1.1//EN" "http://www.w3.org/Graphics/SVG/1.1/DTD/svg11.dtd">
<svg version="1.1" id="图层_1" xmlns="http://www.w3.org/2000/svg" xmlns:xlink="http://www.w3.org/1999/xlink" x="0px" y="0px"
	 width="32px" height="32px" viewBox="0 0 32 32" enable-background="new 0 0 32 32" xml:space="preserve">
<path d="M15.991,17.883c1.636,0,3.223,0.322,4.716,0.953c1.442,0.609,2.738,1.483,3.851,2.599c1.114,1.114,1.986,2.411,2.599,3.851
	c0.387,0.915,0.656,1.867,0.809,2.842H4.017c0.15-0.977,0.421-1.927,0.809-2.842c0.609-1.443,1.483-2.738,2.599-3.851
	c1.115-1.115,2.411-1.987,3.851-2.599C12.768,18.205,14.354,17.883,15.991,17.883 M15.991,16.009
	c-7.727,0-13.992,6.265-13.992,13.992h27.983C29.982,22.274,23.717,16.009,15.991,16.009z"/>
<path d="M15.991,3.892c1.586,0,3.076,0.618,4.197,1.736c1.122,1.121,1.737,2.611,1.737,4.198c0,1.586-0.618,3.076-1.737,4.197
	c-1.121,1.121-2.61,1.737-4.197,1.737s-3.077-0.619-4.198-1.737c-1.121-1.121-1.736-2.611-1.736-4.197
	c0-1.587,0.618-3.077,1.736-4.198C12.914,4.51,14.404,3.892,15.991,3.892 M15.991,2.018c-4.313,0-7.808,3.495-7.808,7.808
	c0,4.313,3.495,7.807,7.808,7.807s7.808-3.494,7.808-7.807C23.799,5.512,20.304,2.018,15.991,2.018z"/>
</svg>
